<!-- Apple Touch Icon 180x180 - Brain RepTrack -->
<svg xmlns="http://www.w3.org/2000/svg" width="180" height="180" viewBox="0 0 512 512">
    <defs>
        <linearGradient id="bg" x1="0%" y1="0%" x2="100%" y2="100%">
            <stop offset="0%" style="stop-color:#7C3AED" />
            <stop offset="100%" style="stop-color:#5B21B6" />
        </linearGradient>
    </defs>
    <rect width="512" height="512" rx="96" fill="url(#bg)" />
    <g transform="translate(256,230)" fill="none" stroke="#fff" stroke-width="18"
        stroke-linecap="round" stroke-linejoin="round">
        <path d="M-10,-90 C-65,-90 -110,-55 -110,0 C-110,38 -82,65 -55,75 C-72,92 -46,112 -10,112" />
        <path d="M-10,-90 C-45,-90 -90,-62 -90,-18" />
        <path d="M-110,0 C-90,0 -72,18 -55,18" />
        <path d="M10,-90 C65,-90 110,-55 110,0 C110,38 82,65 55,75 C72,92 46,112 10,112" />
        <path d="M10,-90 C45,-90 90,-62 90,-18" />
        <path d="M110,0 C90,0 72,18 55,18" />
        <line x1="0" y1="-90" x2="0" y2="112" />
    </g>
    <g transform="translate(256,395)" fill="none" stroke="#C4B5FD" stroke-width="14"
        stroke-linecap="round" stroke-linejoin="round">
        <path d="M-35,0 A35,35 0 1,1 35,0" />
        <polyline points="25,-10 35,0 24,9" />
    </g>
</svg>